<svg width="84" height="11" viewBox="0 0 84 11" fill="none" xmlns="http://www.w3.org/2000/svg">
<path d="M0.144886 10H5.68466V8.98438H1.28977V0.545454H0.144886V10ZM10.2827 10.1477C11.723 10.1477 12.7756 9.42756 13.108 8.35653L12.0554 8.06108C11.7784 8.79972 11.1367 9.16903 10.2827 9.16903C9.00391 9.16903 8.12216 8.34268 8.07138 6.82386H13.2188V6.36222C13.2188 3.72159 11.6491 2.81676 10.1719 2.81676C8.25142 2.81676 6.97727 4.33097 6.97727 6.50994C6.97727 8.68892 8.23295 10.1477 10.2827 10.1477ZM8.07138 5.8821C8.14524 4.77876 8.92543 3.79545 10.1719 3.79545C11.3537 3.79545 12.1108 4.68182 12.1108 5.8821H8.07138ZM16.9627 10.1662C18.1999 10.1662 18.8462 9.50142 19.0678 9.03977H19.1232V10H20.2127V5.32812C20.2127 3.07528 18.4954 2.81676 17.5906 2.81676C16.5195 2.81676 15.3008 3.18608 14.7468 4.47869L15.7809 4.84801C16.021 4.33097 16.5888 3.77699 17.6275 3.77699C18.6293 3.77699 19.1232 4.30788 19.1232 5.21733V5.25426C19.1232 5.78054 18.5877 5.73438 17.2951 5.90057C15.9794 6.07138 14.5437 6.36222 14.5437 7.98722C14.5437 9.37216 15.6147 10.1662 16.9627 10.1662ZM17.1289 9.1875C16.261 9.1875 15.6332 8.79972 15.6332 8.04261C15.6332 7.21165 16.3903 6.95312 17.2397 6.84233C17.7013 6.78693 18.9386 6.65767 19.1232 6.43608V7.43324C19.1232 8.3196 18.4215 9.1875 17.1289 9.1875ZM22.2013 10H23.2907V5.51278C23.2907 4.55256 24.0479 3.85085 25.0819 3.85085C25.3728 3.85085 25.6729 3.90625 25.7467 3.92472V2.81676C25.6221 2.80753 25.3358 2.79829 25.1743 2.79829C24.3248 2.79829 23.5862 3.27841 23.3277 3.98011H23.2538V2.90909H22.2013V10ZM28.1277 5.73438C28.1277 4.49716 28.894 3.79545 29.9373 3.79545C30.9483 3.79545 31.5623 4.45561 31.5623 5.56818V10H32.6518V5.49432C32.6518 3.68466 31.687 2.81676 30.2512 2.81676C29.1802 2.81676 28.5154 3.29688 28.1831 4.01705H28.0907V2.90909H27.0382V10H28.1277V5.73438ZM38.2989 10H39.3884V5.56818C39.3884 4.52947 40.1455 3.79545 40.9949 3.79545C41.8213 3.79545 42.3983 4.33558 42.3983 5.14347V10H43.5063V5.38352C43.5063 4.46946 44.0787 3.79545 45.0759 3.79545C45.8515 3.79545 46.5162 4.20632 46.5162 5.25426V10H47.6057V5.25426C47.6057 3.58771 46.7101 2.81676 45.4452 2.81676C44.4296 2.81676 43.6863 3.28303 43.3216 4.01705H43.2478C42.8969 3.25994 42.2783 2.81676 41.3458 2.81676C40.4225 2.81676 39.7393 3.25994 39.4438 4.01705H39.3515V2.90909H38.2989V10ZM52.4784 10.1477C54.3989 10.1477 55.6915 8.68892 55.6915 6.49148C55.6915 4.27557 54.3989 2.81676 52.4784 2.81676C50.558 2.81676 49.2654 4.27557 49.2654 6.49148C49.2654 8.68892 50.558 10.1477 52.4784 10.1477ZM52.4784 9.16903C51.0196 9.16903 50.3548 7.91335 50.3548 6.49148C50.3548 5.0696 51.0196 3.79545 52.4784 3.79545C53.9372 3.79545 54.602 5.0696 54.602 6.49148C54.602 7.91335 53.9372 9.16903 52.4784 9.16903ZM57.3546 10H58.4441V5.51278C58.4441 4.55256 59.2012 3.85085 60.2353 3.85085C60.5261 3.85085 60.8262 3.90625 60.9 3.92472V2.81676C60.7754 2.80753 60.4892 2.79829 60.3276 2.79829C59.4782 2.79829 58.7395 3.27841 58.481 3.98011H58.4071V2.90909H57.3546V10ZM64.9487 10.1477C66.389 10.1477 67.4416 9.42756 67.774 8.35653L66.7214 8.06108C66.4444 8.79972 65.8027 9.16903 64.9487 9.16903C63.6699 9.16903 62.7882 8.34268 62.7374 6.82386H67.8848V6.36222C67.8848 3.72159 66.3152 2.81676 64.8379 2.81676C62.9174 2.81676 61.6433 4.33097 61.6433 6.50994C61.6433 8.68892 62.899 10.1477 64.9487 10.1477ZM62.7374 5.8821C62.8113 4.77876 63.5914 3.79545 64.8379 3.79545C66.0197 3.79545 66.7768 4.68182 66.7768 5.8821H62.7374ZM79.1905 10L83.3269 5.86364L79.1905 1.72727L78.4796 2.43821L81.4064 5.35582H73.8262V6.37145H81.4064L78.4796 9.2983L79.1905 10Z" fill="#131314"/>
</svg>
